# xmcd
#
# Track frame offsets:
#	150
#	16650
#	30548
#	50785
#	69573
#	85526
#	102068
#	116191
#	131714
#	146184
#	163484
#	179909
#	192919
#	211178
#
# Disc length: 3046 seconds
#
# Revision: 1
# Processed by: cddbd v1.5.2PL0 Copyright (c) Steve Scherf et al.
# Submitted via: audiograbber 1.83.01
#
DISCID=cf0be40e
DTITLE=Peterson, Michael - Modern man
DYEAR=2004
DGENRE=Country
TTITLE0=No more looking over my shoulder
TTITLE1=Traveler's prayer
TTITLE2=Modern man
TTITLE3=If my memory serves me well
TTITLE4=Rome burns
TTITLE5=Nothing compares to loving you
TTITLE6=Right about now
TTITLE7=Play
TTITLE8=Let your imagination run away with me
TTITLE9=What makes a man
TTITLE10=Lesson in goodbye
TTITLE11=About Caroline
TTITLE12=A good thing when it's gone
TTITLE13=Oklahoma stray
EXTD=
EXTT0=
EXTT1=
EXTT2=
EXTT3=
EXTT4=
EXTT5=
EXTT6=
EXTT7=
EXTT8=
EXTT9=
EXTT10=
EXTT11=
EXTT12=
EXTT13=
PLAYORDER=
